<svg viewBox="0 0 96 96" xmlns="http://www.w3.org/2000/svg" xmlns:xlink="http://www.w3.org/1999/xlink" id="Icons_Slippers" overflow="hidden"><g><path d="M29.5 12C20.9 12 14 18 14 25.5 14 25.7 14 25.8 14 26L14 26 14 60C14 61.5 14.8 62.7 16 63.4L16 72.5C16 79.5 21.3 84 29.5 84 37.7 84 43 79.5 43 72.5L43 63.4C44.2 62.7 45 61.4 45 60L45 26 45 26C45 25.8 45 25.7 45 25.5 45 18 38.1 12 29.5 12ZM29.5 78C26.7 78 22 77.3 22 72.5L22 52.4C24.1 50.9 26.7 50 29.5 50 32.3 50 34.9 50.9 37 52.4L37 72.5C37 77.3 32.3 78 29.5 78Z" fill="#E82429"/><path d="M82 25.5C82 18 75.1 12 66.5 12 57.9 12 51 18 51 25.5 51 25.7 51 25.8 51 26L51 26 51 60C51 61.5 51.8 62.7 53 63.4L53 72.5C53 79.5 58.3 84 66.5 84 74.7 84 80 79.5 80 72.5L80 63.4C81.2 62.7 82 61.4 82 60L82 26 82 26C82 25.8 82 25.7 82 25.5ZM66.5 78C63.7 78 59 77.3 59 72.5L59 52.4C61.1 50.9 63.7 50 66.5 50 69.3 50 71.9 50.9 74 52.4L74 72.5C74 77.3 69.3 78 66.5 78Z" fill="#E82429"/></g></svg>